<?xml version="1.0" encoding="UTF-8"?>
<svg xmlns="http://www.w3.org/2000/svg" xmlns:xlink="http://www.w3.org/1999/xlink" version="1.1" width="2000px" height="949px" style="shape-rendering:geometricPrecision; text-rendering:geometricPrecision; image-rendering:optimizeQuality; fill-rule:evenodd; clip-rule:evenodd">
  <g>
    <path style="opacity:0.979" fill="#fefffe" d="M 500.5,-0.5 C 501.167,-0.5 501.833,-0.5 502.5,-0.5C 548.953,57.7921 595.62,115.959 642.5,174C 673.374,183.301 704.374,192.135 735.5,200.5C 731.873,231.553 727.873,262.553 723.5,293.5C 694.791,291.254 666.125,288.587 637.5,285.5C 638.65,262.793 639.816,240.127 641,217.5C 596.249,147.663 551.249,77.9965 506,8.5C 542.986,106.834 580.32,205.167 618,303.5C 644.086,305.3 670.252,306.633 696.5,307.5C 691.593,341.181 686.593,374.847 681.5,408.5C 645.768,412.758 610.101,417.425 574.5,422.5C 574.167,421.833 573.833,421.167 573.5,420.5C 577.045,379.868 579.879,339.201 582,298.5C 555.333,200.5 528.667,102.5 502,4.5C 484.914,175.444 468.247,346.444 452,517.5C 451.5,518.667 450.667,519.5 449.5,520C 394.227,534.152 338.894,547.985 283.5,561.5C 246.31,685.905 208.81,810.238 171,934.5C 170.163,936.821 169.83,939.155 170,941.5C 224.333,858.167 278.667,774.833 333,691.5C 334.267,652.844 334.767,614.177 334.5,575.5C 386.567,563.817 438.567,551.817 490.5,539.5C 488.51,572.815 486.676,606.148 485,639.5C 484.751,640.624 484.251,641.624 483.5,642.5C 447.747,655.306 412.081,668.306 376.5,681.5C 306.428,770.232 236.761,859.232 167.5,948.5C 166.833,948.5 166.167,948.5 165.5,948.5C 110.885,663.425 55.885,378.425 0.5,93.5C 1.33333,93.1667 2.16667,92.8333 3,92.5C 133.552,119.31 264.052,146.31 394.5,173.5C 430.257,115.746 465.591,57.7461 500.5,-0.5 Z M 497.5,9.5 C 498.097,9.7352 498.43,10.2352 498.5,11C 470.768,135.425 443.435,259.925 416.5,384.5C 352.837,387.903 289.171,391.237 225.5,394.5C 230.709,460.716 236.042,526.883 241.5,593C 216.29,709.38 191.457,825.88 167,942.5C 147.668,754.012 128.501,565.512 109.5,377C 203.426,370.088 297.426,363.588 391.5,357.5C 391.078,325.498 390.912,293.498 391,261.5C 426.788,177.594 462.288,93.594 497.5,9.5 Z"></path>
  </g>
  <g>
    <path style="opacity:0.981" fill="#fefffe" d="M 1867.5,242.5 C 1901.72,240.87 1934.72,246.37 1966.5,259C 1977.01,263.747 1986.67,269.747 1995.5,277C 1985.79,296.245 1975.96,315.412 1966,334.5C 1930.44,308.818 1891.28,300.651 1848.5,310C 1831.3,315.908 1825.46,327.408 1831,344.5C 1833.17,348 1836,350.833 1839.5,353C 1848.51,357.779 1857.84,361.779 1867.5,365C 1895.98,372.827 1923.65,382.827 1950.5,395C 1986.23,417.488 1998.4,449.322 1987,490.5C 1980.11,512.711 1966.61,529.545 1946.5,541C 1917.97,554.774 1887.8,561.274 1856,560.5C 1813.05,560.578 1772.55,550.745 1734.5,531C 1731.76,529.638 1729.43,527.804 1727.5,525.5C 1737.47,506.374 1747.63,487.374 1758,468.5C 1798.29,493.558 1841.79,502.058 1888.5,494C 1909.32,488.176 1914.48,476.009 1904,457.5C 1896.31,451.569 1887.81,447.069 1878.5,444C 1854.35,436.395 1830.35,428.395 1806.5,420C 1755,399.162 1737.17,361.996 1753,308.5C 1765.24,280.928 1785.74,262.428 1814.5,253C 1831.88,247.33 1849.54,243.83 1867.5,242.5 Z"></path>
  </g>
  <g>
    <path style="opacity:0.985" fill="#fefffe" d="M 837.5,246.5 C 889.834,246.333 942.168,246.5 994.5,247C 1018.85,248.022 1040.52,256.022 1059.5,271C 1078.78,289.814 1088.11,312.814 1087.5,340C 1087.09,399.736 1057.42,434.07 998.5,443C 966.525,444.422 934.525,444.922 902.5,444.5C 899.782,481.83 897.116,519.163 894.5,556.5C 867.167,556.5 839.833,556.5 812.5,556.5C 820.531,453.091 828.865,349.758 837.5,246.5 Z M 913.5,308.5 C 935.836,308.333 958.169,308.5 980.5,309C 1003.97,312.827 1014.13,326.66 1011,350.5C 1009.09,365.078 1001.25,374.912 987.5,380C 981.963,381.726 976.296,382.726 970.5,383C 949.503,383.5 928.503,383.667 907.5,383.5C 909.885,358.542 911.885,333.542 913.5,308.5 Z"></path>
  </g>
  <g>
    <path style="opacity:0.985" fill="#fefffe" d="M 1133.5,246.5 C 1186.17,246.333 1238.83,246.5 1291.5,247C 1357.13,253.629 1387.63,289.795 1383,355.5C 1379.74,393.22 1360.91,419.72 1326.5,435C 1316.46,438.76 1306.13,441.427 1295.5,443C 1263.52,444.422 1231.52,444.922 1199.5,444.5C 1196.5,481.833 1193.5,519.167 1190.5,556.5C 1163.5,556.5 1136.5,556.5 1109.5,556.5C 1117.25,453.148 1125.25,349.815 1133.5,246.5 Z M 1210.5,308.5 C 1232.5,308.333 1254.5,308.5 1276.5,309C 1293.09,309.93 1303.26,318.43 1307,334.5C 1311.1,364.732 1297.93,380.899 1267.5,383C 1246.5,383.5 1225.5,383.667 1204.5,383.5C 1206.3,358.478 1208.3,333.478 1210.5,308.5 Z"></path>
  </g>
  <g>
    <path style="opacity:0.985" fill="#fefffe" d="M 1430.5,246.5 C 1450.51,246.167 1470.51,246.5 1490.5,247.5C 1532.14,304.974 1573.97,362.307 1616,419.5C 1620.78,361.849 1625.28,304.182 1629.5,246.5C 1655.17,246.5 1680.83,246.5 1706.5,246.5C 1698.06,349.822 1689.73,453.156 1681.5,556.5C 1661.16,556.667 1640.83,556.5 1620.5,556C 1579.12,498.745 1537.62,441.578 1496,384.5C 1491.06,441.83 1486.22,499.164 1481.5,556.5C 1456.17,556.5 1430.83,556.5 1405.5,556.5C 1413.63,453.129 1421.96,349.796 1430.5,246.5 Z"></path>
  </g>
  <g>
    <path style="opacity:0.985" fill="#fefffe" d="M 664.5,427.5 C 666.833,427.5 669.167,427.5 671.5,427.5C 666.832,468.178 661.999,508.845 657,549.5C 609.213,564.907 561.38,580.24 513.5,595.5C 513.167,590.333 512.833,585.167 512.5,580C 513.863,535.832 515.196,491.665 516.5,447.5C 566.029,441.281 615.362,434.614 664.5,427.5 Z"></path>
  </g>
  <g>
    <path style="opacity:0.95" fill="#fefffe" d="M 821.5,592.5 C 1209.83,592.333 1598.17,592.5 1986.5,593C 1994.99,594.002 1998.99,598.835 1998.5,607.5C 1998.91,614.52 1995.91,619.353 1989.5,622C 1599.17,622.667 1208.83,622.667 818.5,622C 815.461,620.969 812.961,619.135 811,616.5C 809.508,611.589 809.174,606.589 810,601.5C 812.008,595.975 815.841,592.975 821.5,592.5 Z"></path>
  </g>
  <g>
    <path style="opacity:0.898" fill="#fefffe" d="M 812.5,655.5 C 820.561,655.179 828.561,655.679 836.5,657C 842.496,659.649 845.163,664.316 844.5,671C 844.998,676.513 842.998,680.846 838.5,684C 833.675,685.895 828.675,686.728 823.5,686.5C 823.5,692.5 823.5,698.5 823.5,704.5C 819.833,704.5 816.167,704.5 812.5,704.5C 812.5,688.167 812.5,671.833 812.5,655.5 Z M 823.5,664.5 C 832.893,664.026 835.559,667.86 831.5,676C 828.986,677.252 826.32,677.752 823.5,677.5C 823.5,673.167 823.5,668.833 823.5,664.5 Z"></path>
  </g>
  <g>
    <path style="opacity:0.889" fill="#fefffe" d="M 849.5,655.5 C 856.175,655.334 862.842,655.5 869.5,656C 880.131,658.516 883.631,665.016 880,675.5C 878.457,677.378 876.624,678.878 874.5,680C 875.333,680.833 876.167,681.667 877,682.5C 880,689.167 883,695.833 886,702.5C 890.975,687.27 895.641,671.937 900,656.5C 904.401,655.533 908.901,655.2 913.5,655.5C 917.852,671.571 922.518,687.571 927.5,703.5C 923.833,704.833 920.167,704.833 916.5,703.5C 915.346,700.548 914.346,697.548 913.5,694.5C 908.833,693.167 904.167,693.167 899.5,694.5C 898.654,697.548 897.654,700.548 896.5,703.5C 889.197,704.497 881.863,704.831 874.5,704.5C 872.692,698.252 870.192,692.252 867,686.5C 865.211,684.771 863.044,684.104 860.5,684.5C 860.5,691.167 860.5,697.833 860.5,704.5C 856.833,704.5 853.167,704.5 849.5,704.5C 849.5,688.167 849.5,671.833 849.5,655.5 Z M 860.5,664.5 C 868.993,663.471 871.327,666.637 867.5,674C 865.323,675.202 862.989,675.702 860.5,675.5C 860.5,671.833 860.5,668.167 860.5,664.5 Z M 906.5,668.5 C 908.073,673.6 909.74,678.767 911.5,684C 908.518,684.498 905.518,684.665 902.5,684.5C 903.226,678.993 904.56,673.659 906.5,668.5 Z"></path>
  </g>
  <g>
    <path style="opacity:0.887" fill="#fefffe" d="M 924.5,655.5 C 935.5,655.5 946.5,655.5 957.5,655.5C 957.5,658.5 957.5,661.5 957.5,664.5C 953.833,664.5 950.167,664.5 946.5,664.5C 946.5,677.833 946.5,691.167 946.5,704.5C 942.833,704.5 939.167,704.5 935.5,704.5C 935.5,691.167 935.5,677.833 935.5,664.5C 931.833,664.5 928.167,664.5 924.5,664.5C 924.5,661.5 924.5,658.5 924.5,655.5 Z"></path>
  </g>
  <g>
    <path style="opacity:0.89" fill="#fefffe" d="M 961.5,655.5 C 965.167,655.5 968.833,655.5 972.5,655.5C 972.5,671.833 972.5,688.167 972.5,704.5C 968.833,704.5 965.167,704.5 961.5,704.5C 961.5,688.167 961.5,671.833 961.5,655.5 Z"></path>
  </g>
  <g>
    <path style="opacity:0.882" fill="#fefffe" d="M 980.5,655.5 C 984.167,655.5 987.833,655.5 991.5,655.5C 991.334,660.844 991.501,666.177 992,671.5C 995.833,666.333 999.667,661.167 1003.5,656C 1007.87,655.172 1012.2,655.339 1016.5,656.5C 1011.31,662.522 1006.31,668.688 1001.5,675C 1006.5,684.667 1011.5,694.333 1016.5,704C 1012.13,704.828 1007.8,704.661 1003.5,703.5C 1000.42,697.009 997.088,690.675 993.5,684.5C 992.914,684.709 992.414,685.043 992,685.5C 991.5,691.825 991.334,698.158 991.5,704.5C 987.833,704.5 984.167,704.5 980.5,704.5C 980.5,688.167 980.5,671.833 980.5,655.5 Z"></path>
  </g>
  <g>
    <path style="opacity:0.9" fill="#fefffe" d="M 1037.5,655.5 C 1045.55,655.225 1053.55,655.725 1061.5,657C 1067,659.988 1069.66,664.654 1069.5,671C 1069.76,677.833 1066.76,682.5 1060.5,685C 1056.58,686.156 1052.58,686.656 1048.5,686.5C 1048.5,692.5 1048.5,698.5 1048.5,704.5C 1044.83,704.5 1041.17,704.5 1037.5,704.5C 1037.5,688.167 1037.5,671.833 1037.5,655.5 Z M 1048.5,664.5 C 1056.79,664.428 1059.46,668.095 1056.5,675.5C 1054.06,677.055 1051.39,677.722 1048.5,677.5C 1048.5,673.167 1048.5,668.833 1048.5,664.5 Z"></path>
  </g>
  <g>
    <path style="opacity:0.895" fill="#fefffe" d="M 1074.5,655.5 C 1081.17,655.334 1087.84,655.5 1094.5,656C 1101.83,657.502 1105.83,662.002 1106.5,669.5C 1105.63,674.423 1102.96,677.923 1098.5,680C 1099.67,681.167 1100.83,682.333 1102,683.5C 1104.74,689.985 1107.74,696.319 1111,702.5C 1115.66,686.859 1120.16,671.192 1124.5,655.5C 1129.32,654.935 1133.82,655.601 1138,657.5C 1142.64,673.088 1147.47,688.588 1152.5,704C 1148.83,704.667 1145.17,704.667 1141.5,704C 1139.79,700.707 1138.79,697.207 1138.5,693.5C 1133.82,693.334 1129.15,693.501 1124.5,694C 1122.96,697.334 1121.96,700.834 1121.5,704.5C 1114.14,704.831 1106.8,704.497 1099.5,703.5C 1097.11,697.713 1094.44,692.046 1091.5,686.5C 1089.83,684.914 1087.83,684.247 1085.5,684.5C 1085.5,691.167 1085.5,697.833 1085.5,704.5C 1081.83,704.5 1078.17,704.5 1074.5,704.5C 1074.5,688.167 1074.5,671.833 1074.5,655.5 Z M 1085.5,664.5 C 1093.59,663.737 1095.93,666.903 1092.5,674C 1090.32,675.202 1087.99,675.702 1085.5,675.5C 1085.5,671.833 1085.5,668.167 1085.5,664.5 Z M 1130.5,667.5 C 1132.74,672.894 1134.41,678.561 1135.5,684.5C 1132.43,684.817 1129.43,684.484 1126.5,683.5C 1128.45,678.313 1129.79,672.98 1130.5,667.5 Z"></path>
  </g>
  <g>
    <path style="opacity:0.872" fill="#fefffe" d="M 1146.5,655.5 C 1150.55,655.176 1154.55,655.509 1158.5,656.5C 1160.98,661.956 1163.65,667.289 1166.5,672.5C 1169.63,667.08 1172.63,661.58 1175.5,656C 1179.21,655.175 1182.88,655.341 1186.5,656.5C 1181.92,665.99 1177.09,675.324 1172,684.5C 1171.5,691.158 1171.33,697.825 1171.5,704.5C 1167.83,704.5 1164.17,704.5 1160.5,704.5C 1160.67,697.159 1160.5,689.826 1160,682.5C 1155.47,673.447 1150.97,664.447 1146.5,655.5 Z"></path>
  </g>
  <g>
    <path style="opacity:0.889" fill="#fefffe" d="M 1201.5,655.5 C 1215.34,652.827 1224.17,658.16 1228,671.5C 1228.84,678.567 1228.51,685.567 1227,692.5C 1219.54,705.328 1209.04,708.495 1195.5,702C 1189.58,695.906 1186.58,688.573 1186.5,680C 1186.36,668.411 1191.36,660.244 1201.5,655.5 Z M 1204.5,664.5 C 1211.27,663.759 1215.44,666.759 1217,673.5C 1217.85,679.253 1217.52,684.92 1216,690.5C 1213.27,696.122 1209.1,697.622 1203.5,695C 1201.11,693.048 1199.61,690.548 1199,687.5C 1198.33,682.5 1198.33,677.5 1199,672.5C 1200.1,669.279 1201.94,666.612 1204.5,664.5 Z"></path>
  </g>
  <g>
    <path style="opacity:0.876" fill="#fefffe" d="M 1230.5,655.5 C 1236.83,655.5 1243.17,655.5 1249.5,655.5C 1249.95,669.906 1249.45,684.239 1248,698.5C 1247.03,702.406 1244.53,704.573 1240.5,705C 1236.46,705.607 1232.46,705.44 1228.5,704.5C 1228.34,701.482 1228.5,698.482 1229,695.5C 1231.4,696.602 1233.9,696.769 1236.5,696C 1237.19,694.933 1237.69,693.766 1238,692.5C 1238.5,683.173 1238.67,673.839 1238.5,664.5C 1235.83,664.5 1233.17,664.5 1230.5,664.5C 1230.5,661.5 1230.5,658.5 1230.5,655.5 Z"></path>
  </g>
  <g>
    <path style="opacity:0.886" fill="#fefffe" d="M 1267.5,655.5 C 1271.83,655.5 1276.17,655.5 1280.5,655.5C 1284.85,671.571 1289.52,687.571 1294.5,703.5C 1290.83,704.833 1287.17,704.833 1283.5,703.5C 1282.35,700.548 1281.35,697.548 1280.5,694.5C 1275.83,693.167 1271.17,693.167 1266.5,694.5C 1265.65,697.548 1264.65,700.548 1263.5,703.5C 1259.88,704.659 1256.21,704.825 1252.5,704C 1257.73,687.897 1262.73,671.73 1267.5,655.5 Z M 1273.5,668.5 C 1275.07,673.6 1276.74,678.767 1278.5,684C 1275.52,684.498 1272.52,684.665 1269.5,684.5C 1270.23,678.993 1271.56,673.659 1273.5,668.5 Z"></path>
  </g>
  <g>
    <path style="opacity:0.887" fill="#fefffe" d="M 1298.5,655.5 C 1302.23,655.177 1305.89,655.511 1309.5,656.5C 1314.33,665.5 1319.17,674.5 1324,683.5C 1324.5,674.173 1324.67,664.839 1324.5,655.5C 1328.17,655.5 1331.83,655.5 1335.5,655.5C 1335.5,671.833 1335.5,688.167 1335.5,704.5C 1331.45,704.824 1327.45,704.491 1323.5,703.5C 1319,695.167 1314.5,686.833 1310,678.5C 1309.5,687.16 1309.33,695.827 1309.5,704.5C 1305.5,704.5 1301.5,704.5 1297.5,704.5C 1297.18,688.089 1297.52,671.756 1298.5,655.5 Z"></path>
  </g>
  <g>
    <path style="opacity:0.886" fill="#fefffe" d="M 1361.5,655.5 C 1365.55,655.176 1369.55,655.509 1373.5,656.5C 1378.33,665.5 1383.17,674.5 1388,683.5C 1388.5,674.173 1388.67,664.839 1388.5,655.5C 1392.17,655.5 1395.83,655.5 1399.5,655.5C 1399.5,671.833 1399.5,688.167 1399.5,704.5C 1395.45,704.824 1391.45,704.491 1387.5,703.5C 1383,695.167 1378.5,686.833 1374,678.5C 1373.5,687.16 1373.33,695.827 1373.5,704.5C 1369.5,704.5 1365.5,704.5 1361.5,704.5C 1361.5,688.167 1361.5,671.833 1361.5,655.5 Z"></path>
  </g>
  <g>
    <path style="opacity:0.89" fill="#fefffe" d="M 1407.5,655.5 C 1411.17,655.5 1414.83,655.5 1418.5,655.5C 1418.5,671.833 1418.5,688.167 1418.5,704.5C 1414.83,704.5 1411.17,704.5 1407.5,704.5C 1407.5,688.167 1407.5,671.833 1407.5,655.5 Z"></path>
  </g>
  <g>
    <path style="opacity:0.902" fill="#fefffe" d="M 1426.5,655.5 C 1433.17,655.334 1439.84,655.5 1446.5,656C 1457.78,659.598 1460.61,666.764 1455,677.5C 1453.58,678.46 1452.08,679.293 1450.5,680C 1453.53,682.559 1455.7,685.726 1457,689.5C 1458.94,694.497 1460.78,699.497 1462.5,704.5C 1458.82,704.665 1455.15,704.499 1451.5,704C 1448.93,698.142 1446.27,692.308 1443.5,686.5C 1441.83,684.914 1439.83,684.247 1437.5,684.5C 1437.5,691.167 1437.5,697.833 1437.5,704.5C 1433.83,704.5 1430.17,704.5 1426.5,704.5C 1426.5,688.167 1426.5,671.833 1426.5,655.5 Z M 1437.5,664.5 C 1445.59,663.737 1447.93,666.903 1444.5,674C 1442.32,675.202 1439.99,675.702 1437.5,675.5C 1437.5,671.833 1437.5,668.167 1437.5,664.5 Z"></path>
  </g>
  <g>
    <path style="opacity:0.904" fill="#fefffe" d="M 1465.5,655.5 C 1469.44,655.207 1473.27,655.54 1477,656.5C 1480.85,664.198 1484.68,671.864 1488.5,679.5C 1492.76,671.991 1496.76,664.324 1500.5,656.5C 1504.11,655.511 1507.77,655.177 1511.5,655.5C 1511.5,671.833 1511.5,688.167 1511.5,704.5C 1507.83,704.5 1504.17,704.5 1500.5,704.5C 1500.67,696.16 1500.5,687.827 1500,679.5C 1497.73,683.714 1495.73,688.047 1494,692.5C 1490.33,693.833 1486.67,693.833 1483,692.5C 1481.27,688.047 1479.27,683.714 1477,679.5C 1476.5,687.827 1476.33,696.16 1476.5,704.5C 1472.83,704.5 1469.17,704.5 1465.5,704.5C 1465.5,688.167 1465.5,671.833 1465.5,655.5 Z"></path>
  </g>
  <g>
    <path style="opacity:0.885" fill="#fefffe" d="M 1527.5,655.5 C 1531.83,655.5 1536.17,655.5 1540.5,655.5C 1545.17,671.833 1549.83,688.167 1554.5,704.5C 1550.77,704.823 1547.11,704.489 1543.5,703.5C 1542.65,700.452 1541.65,697.452 1540.5,694.5C 1535.88,693.507 1531.21,693.173 1526.5,693.5C 1525.8,697.096 1524.8,700.596 1523.5,704C 1519.83,704.667 1516.17,704.667 1512.5,704C 1517.8,687.934 1522.8,671.767 1527.5,655.5 Z M 1533.5,668.5 C 1535.38,673.505 1537.05,678.672 1538.5,684C 1535.52,684.498 1532.52,684.665 1529.5,684.5C 1530.52,679.073 1531.86,673.74 1533.5,668.5 Z"></path>
  </g>
  <g>
    <path style="opacity:0.905" fill="#fefffe" d="M 1558.5,655.5 C 1562.23,655.177 1565.89,655.511 1569.5,656.5C 1574.67,666.167 1579.83,675.833 1585,685.5C 1585.5,675.506 1585.67,665.506 1585.5,655.5C 1589.17,655.5 1592.83,655.5 1596.5,655.5C 1596.5,671.833 1596.5,688.167 1596.5,704.5C 1592.49,704.666 1588.49,704.499 1584.5,704C 1579.29,695.744 1574.45,687.244 1570,678.5C 1569.5,687.16 1569.33,695.827 1569.5,704.5C 1565.83,704.5 1562.17,704.5 1558.5,704.5C 1558.5,688.167 1558.5,671.833 1558.5,655.5 Z"></path>
  </g>
  <g>
    <path style="opacity:0.873" fill="#fefffe" d="M 1628.5,655.5 C 1635.3,655.064 1641.97,655.73 1648.5,657.5C 1649.32,660.446 1649.32,663.446 1648.5,666.5C 1643.57,665.146 1638.57,664.646 1633.5,665C 1630.81,667.632 1631.14,669.966 1634.5,672C 1640.68,674.054 1646.18,677.22 1651,681.5C 1656.16,696.186 1650.99,704.186 1635.5,705.5C 1630.27,705.287 1625.27,704.12 1620.5,702C 1619.87,699.184 1620.54,696.518 1622.5,694C 1626.64,694.562 1630.81,695.395 1635,696.5C 1641.38,695.528 1643.21,692.361 1640.5,687C 1633.58,684.294 1627.41,680.46 1622,675.5C 1618.72,666.845 1620.89,660.178 1628.5,655.5 Z"></path>
  </g>
  <g>
    <path style="opacity:0.899" fill="#fefffe" d="M 1659.5,655.5 C 1669.5,655.5 1679.5,655.5 1689.5,655.5C 1689.5,658.5 1689.5,661.5 1689.5,664.5C 1683.17,664.5 1676.83,664.5 1670.5,664.5C 1670.5,667.5 1670.5,670.5 1670.5,673.5C 1676.17,673.5 1681.83,673.5 1687.5,673.5C 1687.5,676.5 1687.5,679.5 1687.5,682.5C 1681.83,682.5 1676.17,682.5 1670.5,682.5C 1670.5,687.167 1670.5,691.833 1670.5,696.5C 1676.83,696.5 1683.17,696.5 1689.5,696.5C 1689.5,699.167 1689.5,701.833 1689.5,704.5C 1679.5,704.5 1669.5,704.5 1659.5,704.5C 1659.5,688.167 1659.5,671.833 1659.5,655.5 Z"></path>
  </g>
  <g>
    <path style="opacity:0.882" fill="#fefffe" d="M 1691.5,655.5 C 1695.5,655.5 1699.5,655.5 1703.5,655.5C 1705.01,666.224 1706.84,676.891 1709,687.5C 1710.82,681.223 1712.32,674.89 1713.5,668.5C 1717.17,668.5 1720.83,668.5 1724.5,668.5C 1725.2,674.636 1726.53,680.636 1728.5,686.5C 1730.66,676.569 1732.49,666.569 1734,656.5C 1737.73,655.54 1741.56,655.207 1745.5,655.5C 1741.68,671.799 1738.01,688.133 1734.5,704.5C 1730.5,704.5 1726.5,704.5 1722.5,704.5C 1721.66,698.449 1720.49,692.449 1719,686.5C 1717.18,692.121 1715.51,697.788 1714,703.5C 1710.27,704.46 1706.44,704.793 1702.5,704.5C 1698.99,688.129 1695.32,671.795 1691.5,655.5 Z"></path>
  </g>
  <g>
    <path style="opacity:0.885" fill="#fefffe" d="M 1757.5,655.5 C 1761.88,655.174 1766.22,655.508 1770.5,656.5C 1775.41,672.386 1780.41,688.219 1785.5,704C 1781.51,704.499 1777.51,704.666 1773.5,704.5C 1772.83,700.833 1772.17,697.167 1771.5,693.5C 1766.82,693.334 1762.15,693.501 1757.5,694C 1755.96,697.334 1754.96,700.834 1754.5,704.5C 1750.83,704.5 1747.17,704.5 1743.5,704.5C 1748.17,688.167 1752.83,671.833 1757.5,655.5 Z M 1763.5,667.5 C 1765.74,672.894 1767.41,678.561 1768.5,684.5C 1765.43,684.817 1762.43,684.484 1759.5,683.5C 1761.45,678.313 1762.79,672.98 1763.5,667.5 Z"></path>
  </g>
  <g>
    <path style="opacity:0.895" fill="#fefffe" d="M 1805.5,655.5 C 1814.65,654.954 1823.65,655.788 1832.5,658C 1834.62,659.731 1836.12,661.898 1837,664.5C 1839.41,680.26 1832.58,687.593 1816.5,686.5C 1816.5,692.5 1816.5,698.5 1816.5,704.5C 1812.83,704.5 1809.17,704.5 1805.5,704.5C 1805.5,688.167 1805.5,671.833 1805.5,655.5 Z M 1816.5,664.5 C 1825.87,664.006 1828.54,667.839 1824.5,676C 1821.99,677.252 1819.32,677.752 1816.5,677.5C 1816.5,673.167 1816.5,668.833 1816.5,664.5 Z"></path>
  </g>
  <g>
    <path style="opacity:0.916" fill="#fefffe" d="M 1911.5,655.5 C 1915.17,655.5 1918.83,655.5 1922.5,655.5C 1922.5,669.167 1922.5,682.833 1922.5,696.5C 1928.5,696.5 1934.5,696.5 1940.5,696.5C 1940.5,699.167 1940.5,701.833 1940.5,704.5C 1930.83,704.5 1921.17,704.5 1911.5,704.5C 1911.5,688.167 1911.5,671.833 1911.5,655.5 Z"></path>
  </g>
  <g>
    <path style="opacity:0.874" fill="#fefffe" d="M 1985.5,655.5 C 1988.83,655.5 1992.17,655.5 1995.5,655.5C 1995.5,671.833 1995.5,688.167 1995.5,704.5C 1992.81,704.664 1990.15,704.497 1987.5,704C 1986.87,703.25 1986.37,702.416 1986,701.5C 1977.14,708.03 1970.47,706.363 1966,696.5C 1963.27,687.169 1964.77,678.669 1970.5,671C 1975.46,667.614 1980.29,667.781 1985,671.5C 1985.5,666.177 1985.67,660.844 1985.5,655.5 Z M 1978.5,677.5 C 1984.42,677.934 1986.76,681.1 1985.5,687C 1986.87,692.381 1984.87,695.548 1979.5,696.5C 1976.16,694.528 1974.49,691.528 1974.5,687.5C 1974.63,683.596 1975.96,680.263 1978.5,677.5 Z"></path>
  </g>
  <g>
    <path style="opacity:0.859" fill="#fefffe" d="M 1875.5,659.5 C 1878.83,659.5 1882.17,659.5 1885.5,659.5C 1885.5,662.833 1885.5,666.167 1885.5,669.5C 1887.83,669.5 1890.17,669.5 1892.5,669.5C 1892.5,672.5 1892.5,675.5 1892.5,678.5C 1890.17,678.5 1887.83,678.5 1885.5,678.5C 1885.33,684.176 1885.5,689.843 1886,695.5C 1887.7,696.406 1889.53,696.739 1891.5,696.5C 1891.83,699.167 1892.17,701.833 1892.5,704.5C 1886.43,706.42 1880.93,705.42 1876,701.5C 1875.5,693.841 1875.33,686.174 1875.5,678.5C 1874.17,678.5 1872.83,678.5 1871.5,678.5C 1871.5,675.5 1871.5,672.5 1871.5,669.5C 1872.83,669.5 1874.17,669.5 1875.5,669.5C 1875.5,666.167 1875.5,662.833 1875.5,659.5 Z"></path>
  </g>
  <g>
    <path style="opacity:0.881" fill="#fefffe" d="M 1944.5,659.5 C 1947.83,659.5 1951.17,659.5 1954.5,659.5C 1954.5,662.833 1954.5,666.167 1954.5,669.5C 1956.83,669.5 1959.17,669.5 1961.5,669.5C 1961.5,672.5 1961.5,675.5 1961.5,678.5C 1958.83,678.5 1956.17,678.5 1953.5,678.5C 1953.36,684.536 1953.69,690.536 1954.5,696.5C 1956.5,696.5 1958.5,696.5 1960.5,696.5C 1960.83,699.167 1961.17,701.833 1961.5,704.5C 1955.43,706.42 1949.93,705.42 1945,701.5C 1944.5,693.841 1944.33,686.174 1944.5,678.5C 1943.17,678.5 1941.83,678.5 1940.5,678.5C 1940.5,675.5 1940.5,672.5 1940.5,669.5C 1941.83,669.5 1943.17,669.5 1944.5,669.5C 1944.5,666.167 1944.5,662.833 1944.5,659.5 Z"></path>
  </g>
  <g>
    <path style="opacity:0.868" fill="#fefffe" d="M 1838.5,669.5 C 1841.83,669.5 1845.17,669.5 1848.5,669.5C 1850.19,676.913 1852.19,684.247 1854.5,691.5C 1857.11,684.331 1859.11,676.998 1860.5,669.5C 1863.83,669.5 1867.17,669.5 1870.5,669.5C 1867.32,681.205 1863.99,692.872 1860.5,704.5C 1856.5,704.5 1852.5,704.5 1848.5,704.5C 1844.76,692.944 1841.43,681.277 1838.5,669.5 Z"></path>
  </g>
  <g>
    <path style="opacity:0.922" fill="#fefffe" d="M 1896.5,694.5 C 1899.17,694.5 1901.83,694.5 1904.5,694.5C 1904.5,697.833 1904.5,701.167 1904.5,704.5C 1901.83,704.5 1899.17,704.5 1896.5,704.5C 1896.5,701.167 1896.5,697.833 1896.5,694.5 Z"></path>
  </g>
</svg>
