<?xml version="1.0" encoding="UTF-8"?>
<svg xmlns="http://www.w3.org/2000/svg" xmlns:xlink="http://www.w3.org/1999/xlink" version="1.1" width="512px" height="512px" style="shape-rendering:geometricPrecision; text-rendering:geometricPrecision; image-rendering:optimizeQuality; fill-rule:evenodd; clip-rule:evenodd">
  <g>
    <path style="opacity:0.996" fill="#25d366" d="M 232.5,-0.5 C 247.833,-0.5 263.167,-0.5 278.5,-0.5C 368.144,10.3879 435.644,54.7213 481,132.5C 497.695,163.971 507.861,197.304 511.5,232.5C 511.5,247.833 511.5,263.167 511.5,278.5C 500.612,368.144 456.279,435.644 378.5,481C 347.029,497.695 313.696,507.861 278.5,511.5C 263.167,511.5 247.833,511.5 232.5,511.5C 142.856,500.612 75.3562,456.279 30,378.5C 13.3053,347.029 3.1386,313.696 -0.5,278.5C -0.5,263.167 -0.5,247.833 -0.5,232.5C 10.3875,142.857 54.7208,75.3573 132.5,30C 163.971,13.3053 197.304,3.1386 232.5,-0.5 Z"></path>
  </g>
  <g>
    <path style="opacity:1" fill="#fdfefd" d="M 243.5,94.5 C 309.868,92.591 360.368,119.591 395,175.5C 420.166,222.821 422.166,271.155 401,320.5C 372.979,376.149 327.812,406.982 265.5,413C 246.798,414.3 228.465,412.3 210.5,407C 199.692,403.121 189.025,398.954 178.5,394.5C 151.154,401.503 123.82,408.503 96.5,415.5C 103.029,388.383 110.029,361.383 117.5,334.5C 106.326,312.473 99.4925,289.14 97,264.5C 96.0942,191.116 128.594,138.616 194.5,107C 210.465,100.905 226.799,96.7382 243.5,94.5 Z"></path>
  </g>
  <g>
    <path style="opacity:1" fill="#26d366" d="M 242.5,121.5 C 307.477,119.382 353.31,147.715 380,206.5C 396.067,253.426 389.4,296.76 360,336.5C 333.457,368.52 299.29,385.187 257.5,386.5C 238.692,386.977 220.692,383.477 203.5,376C 196.529,372.599 189.696,369.099 183,365.5C 166.857,369.744 150.691,373.744 134.5,377.5C 138.186,361.606 142.186,345.772 146.5,330C 125.151,295.741 118.985,258.908 128,219.5C 146.415,163.574 184.581,130.908 242.5,121.5 Z"></path>
  </g>
  <g>
    <path style="opacity:1" fill="#fdfefd" d="M 195.5,180.5 C 200.844,180.334 206.177,180.501 211.5,181C 214.106,182.938 215.939,185.438 217,188.5C 221.456,199.075 225.623,209.742 229.5,220.5C 227.184,227.995 223.017,234.329 217,239.5C 216.333,241.5 216.333,243.5 217,245.5C 230.545,268.873 250.045,285.206 275.5,294.5C 276.938,294.281 278.271,293.781 279.5,293C 284.287,287.258 288.953,281.425 293.5,275.5C 294.559,274.304 295.893,273.637 297.5,273.5C 310.521,278.509 323.187,284.343 335.5,291C 337.915,302.086 335.248,311.753 327.5,320C 314.402,330.396 299.735,333.396 283.5,329C 247.357,317.853 218.19,297.019 196,266.5C 186.16,254.82 179.493,241.486 176,226.5C 173.102,206.99 179.602,191.657 195.5,180.5 Z"></path>
  </g>
</svg>
